<?xml version="1.0" encoding="utf-8"?>
<!-- Generator: Adobe Illustrator 16.0.0, SVG Export Plug-In . SVG Version: 6.00 Build 0)  -->
<!DOCTYPE svg PUBLIC "-//W3C//DTD SVG 1.1//EN" "http://www.w3.org/Graphics/SVG/1.1/DTD/svg11.dtd">
<svg version="1.1" id="Layer_1" xmlns="http://www.w3.org/2000/svg" xmlns:xlink="http://www.w3.org/1999/xlink" x="0px" y="0px"
	 width="468.854px" height="361.388px" viewBox="0 0 468.854 361.388" enable-background="new 0 0 468.854 361.388"
	 xml:space="preserve">
<path opacity="0.5" fill-rule="evenodd" clip-rule="evenodd" d="M181.029,360.214c1.823-2.228,3.814-0.681,5.789-0.248
	c0.106-0.452,0.211-0.904,0.405-1.73c2.079,0.225,4.323-0.755,6.355,0.931c0.547-0.548,1.135-1.136,1.965-1.966
	c2.237,0.288,4.795-0.637,7.278,0.919c0.103-0.505,0.195-0.959,0.362-1.774c2.468-0.046,5.075-0.693,7.62,0.595
	c0.117-0.45,0.234-0.9,0.454-1.741c2.383,0.363,4.964-0.846,7.356,0.933c0.53-0.529,1.117-1.117,1.933-1.934
	c2.25,0.296,4.808-0.638,7.283,0.897c0.103-0.499,0.196-0.953,0.363-1.771c2.475-0.007,5.083-0.666,7.629,0.596
	c0.117-0.448,0.234-0.898,0.453-1.739c2.381,0.392,4.962-0.816,7.361,0.929c0.524-0.525,1.112-1.113,1.918-1.919
	c2.258,0.309,4.816-0.63,7.279,0.885c0.104-0.499,0.197-0.953,0.369-1.783c2.387,0.008,4.899-0.477,7.916,0.615
	c0.123-0.049-0.229-0.843,0.07-1.354c0.286-0.114,0.584-0.35,0.855-0.321c5.076,0.515,9.965-1.723,15.049-1.019
	c1.666-1.396,3.668-0.873,5.567-1.038c0.936-0.081,1.293,0.735,1.995,0.915c0.689-0.54,0.246-1.263,0.375-1.877
	c2.08-0.164,6.402-1.646,8.724-2.986c0.81-0.17,1.2,0.409,1.653,0.869c0.908-0.169,0.495-0.97,0.716-1.475
	c3.076-0.977,6.237-1.753,9.065-3.533c0.438,0.334,0.813,0.621,1.253,0.955c1.018,0,0.343-0.926,0.896-1.506
	c2.772-0.906,5.917-1.734,8.832-3.405c0.485,0.319,0.979,0.644,1.468,0.966c0.551-0.322,0.351-0.863,0.409-1.494
	c2.98-1.022,6.247-1.521,8.545-3.305c1.24-0.25,1.405,0.65,1.997,0.853c0.488-0.31,0.448-0.812,0.435-1.59
	c3.163-0.869,6.492-1.577,9.134-3.638c0.653,0.604,1.014,0.937,1.369,1.266c0.698-0.353,0.354-1.156,0.675-1.667
	c3.176-0.804,6.293-1.692,8.973-3.524c0.572,0.493,0.938,0.809,1.309,1.129c0.776-0.252,0.418-1.042,0.684-1.55
	c5.638-1.81,11.248-3.495,15.831-7.69c3.12-2.855,6.876-5.018,10.348-7.488c3.472-2.472,7.169-4.686,10.359-7.479
	c4.344-3.803,9.278-6.789,13.669-10.506c1.431-1.211,3.098-2.143,4.657-3.201c2.512,4.393,7.379,6.299,10.546,10
	c2.967,0.744,3.961,4.232,6.929,4.975c3.955,4.328,9.245,7.088,13.281,11.313c0.807,0.845,1.918,1.147,2.841,1.626
	c7.798,4.043,15.763,7.765,23.54,11.845c1.807,0.948,4.08,0.698,5.688,2.598c0,4.231,0,8.681,0,13.188
	c-2.005,2.249-5.429,0.632-7.763,2.456c-4.674-0.167-9.051,1.613-13.625,2.218c-3.92,0.518-8.01,1.121-11.842,2.604
	c-2.032,0.786-4.555-0.513-6.505,1.178c-5.918,0.354-11.603,2.813-17.647,1.99c-1.986-0.271-3.546,1.271-5.586,1.084
	c-1.855-0.17-3.93-0.686-5.593,0.903c-0.175,0.166-0.65,0.062-0.977,0.017c-5.59-0.767-10.995,1.416-16.566,1.02
	c-2.577-0.183-4.873,1.393-7.586,1.084c-2.322-0.263-4.887-0.761-7.081,0.881c-0.214,0.16-0.65,0.016-0.983,0.022
	c-9.188,0.181-18.327,1.528-27.553,1.037c-5.203-0.277-10.293,1.364-15.568,1.037c-5.472-0.339-10.981-0.075-16.475-0.075
	c-5.326,0-10.653,0-15.979,0c-5.327,0-10.768-0.694-15.956,0.152c-9.209,1.505-18.392,0.571-27.576,0.797
	c-9.316,0.229-18.643-0.006-27.963,0.099c-1.849,0.021-3.955-0.896-5.556,0.896c-1.756-2.507-3.334,0.699-5.219,0.169
	c-1.851-0.521-3.963-0.113-5.96-0.113c-1.831,0-3.662,0-5.493,0c-1.998,0-3.995,0-5.993,0c-1.997,0-3.995,0-5.992,0
	c-1.332,0-2.665,0.037-3.994-0.019C181.301,361.174,180.916,360.846,181.029,360.214z"/>
<path fill-rule="evenodd" clip-rule="evenodd" fill="#864A20" d="M32.029,343.214c-0.036-0.486,0.063-0.929,0.663-0.793
	c0.164,0.037,0.228,0.517,0.337,0.793C32.696,343.214,32.363,343.214,32.029,343.214z"/>
<g>
	<path fill-rule="evenodd" clip-rule="evenodd" fill="#643519" stroke="#000000" stroke-width="6" stroke-miterlimit="10" d="
		M34.029,343.214c-0.333,0-0.667,0-1,0c-0.11-0.276-0.173-0.756-0.337-0.793c-0.599-0.136-0.698,0.307-0.663,0.793
		c-0.113,0.28-0.188,0.777-0.346,0.806c-1.306,0.229-4.989-0.813-6.654-1.806c1.719-1.169,3.44-2.25,4.809-3.947
		c1.274-1.578,3.175-2.633,4.665-4.06c2.763-2.646,5.313-5.521,8.165-8.061c2.621-2.334,5.416-4.548,7.822-7.044
		c7.086-7.348,14.943-13.859,22.206-21.009c3.226-3.176,5.463-6.847,7.064-11.06c2.683-7.059,1.614-14.025-1.892-20.092
		c-4.978-8.615-12.573-14.19-23.048-14.742c-0.52-0.027-0.904-0.355-0.791-0.986c-0.078-0.989,0.634-0.882,1.288-1.017
		c5.627-1.161,9.036-5.179,11.625-9.788c1.782-3.174,1.881-7.231,0.865-10.457c-1.089-3.457-2.92-6.957-6.511-9.201
		c-1.75-1.094-3.979-1.693-5.266-3.537c0-0.334,0-0.666,0-1c2.791,0.219,5.282-1.02,7.567-2.188
		c7.956-4.066,15.843-8.271,24.06-11.791c9.48-4.061,18.444-9.168,27.902-13.322c8.851-3.887,17.409-8.541,26.174-12.7
		c3.058-1.451,6.115-2.904,9.165-4.371c3.19-1.534,6.393-3.044,9.552-4.64c3.023-1.528,6.05-2.99,9.211-4.265
		c4.841-1.952,9.516-4.399,14.05-7.003c3.413-1.96,7.35-2.979,10.319-5.72c13.667,0,27.333,0,41,0c-0.271,3.521,1.533,6.626,2,10
		c-2.09,0.837-1.119,2.685-0.662,3.631c0.455,0.944,0.612,1.773,0.663,2.727c0.077,1.462-0.337,3.255,0.362,4.307
		c0.988,1.486,0.721,2.929,0.527,4.238c-0.191,1.296,1.933,2.414,0.164,3.652c1.632,1.018,0.295,2.987,1.133,3.983
		c0.945,1.123-0.444,2.317,0.707,3.463c0.678,0.676-0.333,2.581,1.084,3.479c-1.953,1.229,0.712,2.318,0.088,3.68
		c-0.634,1.383,0.549,2.696,0.891,4.054c0.388,1.544-0.063,3.154,0.401,4.81c0.335,1.195,0.886,2.58,0.612,3.902
		c-0.357,1.727,0.853,3.013,1.049,4.575c0.197,1.569-0.748,3.312,0.679,4.699c-1.106,1.435,0.72,2.631,0.321,4.038
		c-0.241,0.854,0.438,1.466,0.727,2.178c0.191,0.477-1.052,1.43,0.184,2.035c-3.645,6.967-7.193,13.982-10.954,20.881
		c-4.358,7.995-8.16,16.273-12.787,24.142c-2.637,4.484-4.617,9.384-7.047,14.025c-0.664,1.269-1.663,2.784-1.142,4.503
		c-0.583,0-1.167,0-2,0c0,0.833,0,1.416,0,2c-0.609-0.113-0.925,0.259-0.98,0.758c-0.075,0.672,0.042,1.314,0.98,1.242
		c-1.61,2.959-3.867,5.434-6,8c-1.271,0.053-2.381,0.238-3.65,0.844c-1.585,0.758-2.763,1.991-4.324,2.764
		c-5.686,2.818-11.053,6.295-16.648,9.236c-7.25,3.811-14.399,7.777-21.537,11.785c-6.74,3.785-13.569,7.41-20.844,11.37
		c-2.759,0.251-6.1-0.202-9.485,0.854c-2.424,0.756-5.309,0.411-7.925,0.073c-2.698-0.349-4.983,1.054-7.573,1.134
		c-4.522,0.141-9.151-0.957-13.553,0.939c-6.07-0.696-12.006,0.951-18.038,1.045c-3.194,0.05-6.354-0.383-9.621,0.79
		c-2.356,0.847-5.282,0.374-7.915,0.108c-2.821-0.285-5.249,1.397-8.075,1.099c-7.375-0.78-14.636,1.604-22.026,0.981
		C34.317,342.195,33.916,342.583,34.029,343.214z"/>
	<path fill-rule="evenodd" clip-rule="evenodd" fill="#3B2014" stroke="#000000" stroke-width="6" stroke-miterlimit="10" d="
		M237.029,160.214c-0.467-3.374-2.271-6.479-2-10c0-15.333,0-30.667,0-46c0.117-0.283,0.155-0.726,0.361-0.827
		c8.408-4.115,16.85-8.167,25.24-12.317c1.688-0.835,3.406-1.774,4.004-3.661c2.535-8.076,5.068-16.152,7.613-24.259
		c1.986,0.775,3.078-1.409,4.781-0.936c3.643-0.191,6.867-1.908,10.312-2.825c3.585-0.954,7.122-2.219,10.694-3.039
		c6.672-1.531,13.171-3.669,19.698-5.583c7.246-2.124,14.668-3.796,21.696-6.616c2.208-0.886,4.362-0.909,6.6-0.938
		c0.51,2.435-1.324,4.107-1.998,6.157c-1.684,5.124-2.977,10.419-5.143,15.329c-2.18,4.942-3.519,10.16-5.623,15.138
		c-2.129,5.035-3.209,10.653-5.356,15.739c-2.161,5.115-2.868,10.76-5.88,15.526c-2.885,10.24-7.008,20.049-10.471,30.088
		c-1.232,3.571-2.409,7.161-3.665,10.902c0.956,0.06,1.436,0.116,1.914,0.116c8.315,0.005,16.634-0.145,24.945,0.045
		c8.346,0.191,16.673-0.418,25.057,0.779c6.356,0.907,12.946,0.19,19.433,0.165c0.721-0.002,1.773,0.389,1.787-0.985
		c1.496,0.085,0.85,1.242,1,2c-0.631-0.114-0.89,0.271-0.996,0.791c-1.529,7.446-4.242,14.564-6.377,21.83
		c-1.729,5.882-3.395,11.839-5.536,17.636c-2.084,5.642-3.417,11.56-5.094,17.352c-0.813,2.809-2.208,5.44-2.188,8.572
		c-2.035-0.523-3.445,0.488-4.953,0.713c-2.604,0.388-5.327,0.315-7.961,0.051c-2.822-0.283-5.261,1.262-8.077,1.146
		c-3.348-0.137-6.695-0.363-10.109,0.758c-2.401,0.789-5.297,0.381-7.925,0.089c-2.677-0.298-4.921,1.224-7.578,1.168
		c-3.845-0.081-7.664-0.14-11.602,0.683c-4.681,0.976-9.668,0.139-14.529,1.113c-3.76,0.754-7.695-0.291-11.582,0.967
		c-2.259,0.73-4.992,0.428-7.429,0.052c-2.566-0.396-4.607,1.317-7.086,1.127c-2.645-0.204-5.318-0.046-7.979-0.046
		C249.029,205.548,243.029,182.88,237.029,160.214z"/>
	<path fill-rule="evenodd" clip-rule="evenodd" fill="#010101" stroke="#000000" stroke-width="6" stroke-miterlimit="10" d="
		M255.029,228.214c2.66,0,5.334-0.158,7.979,0.046c2.479,0.19,4.52-1.522,7.086-1.127c2.437,0.376,5.17,0.679,7.429-0.052
		c3.887-1.258,7.822-0.213,11.582-0.967c4.861-0.975,9.849-0.138,14.529-1.113c3.938-0.822,7.757-0.764,11.602-0.683
		c2.657,0.056,4.901-1.466,7.578-1.168c2.628,0.292,5.523,0.7,7.925-0.089c3.414-1.121,6.762-0.895,10.109-0.758
		c2.816,0.115,5.255-1.43,8.077-1.146c2.634,0.265,5.357,0.337,7.961-0.051c1.508-0.225,2.918-1.236,4.953-0.713
		c-0.021-3.132,1.374-5.764,2.188-8.572c1.677-5.792,3.01-11.71,5.094-17.352c2.142-5.797,3.808-11.754,5.536-17.636
		c2.135-7.265,4.848-14.384,6.377-21.83c0.106-0.52,0.365-0.904,0.996-0.791c3.837,3.951,5.415,9.21,7.961,13.898
		c3.83,7.052,7.332,14.307,11.24,21.286c2.648,4.729,5.011,9.628,7.647,14.364c2.029,3.645,4.576,7.019,6.141,11.874
		c0,20.366,0,41.677,0,63.068c-2.014,2.229-4.666,3.743-7.133,5.481c-0.798,0.563-1.665,0.953-1.856,2.027
		c-1.56,1.059-3.227,1.99-4.657,3.201c-4.391,3.717-9.325,6.703-13.669,10.506c-3.19,2.793-6.888,5.007-10.359,7.479
		c-3.472,2.471-7.228,4.633-10.348,7.488c-4.583,4.195-10.193,5.881-15.831,7.69c-0.266,0.508,0.093,1.298-0.684,1.55
		c-0.371-0.32-0.736-0.636-1.309-1.129c-2.68,1.832-5.797,2.721-8.973,3.524c-0.32,0.511,0.023,1.314-0.675,1.667
		c-0.355-0.329-0.716-0.662-1.369-1.266c-2.642,2.061-5.971,2.769-9.134,3.638c0.014,0.778,0.054,1.28-0.435,1.59
		c-0.592-0.202-0.757-1.103-1.997-0.853c-2.298,1.783-5.564,2.282-8.545,3.305c-0.059,0.631,0.142,1.172-0.409,1.494
		c-0.489-0.322-0.982-0.646-1.468-0.966c-2.915,1.671-6.06,2.499-8.832,3.405c-0.554,0.58,0.121,1.506-0.896,1.506
		c-0.439-0.334-0.815-0.621-1.253-0.955c-2.828,1.78-5.989,2.557-9.065,3.533c-0.221,0.505,0.192,1.306-0.716,1.475
		c-0.453-0.46-0.844-1.039-1.653-0.869c-2.321,1.34-6.644,2.822-8.724,2.986c-0.167,0-0.353,0.046-0.494-0.014
		c-0.143-0.059-0.365-0.268-0.342-0.333c1.265-3.435,2.682-6.819,3.808-10.298c2.092-6.463,4.258-12.916,6.609-19.27
		c2.946-7.959,5.347-16.097,8.383-24.021c2.206-5.76,4.074-11.649,6.148-17.64c-0.484-0.422-0.945-0.91-1.486-1.285
		c-5.694-3.951-10.572-8.896-15.983-13.205c-4.669-3.719-9.064-7.815-13.717-11.603c-5.673-4.617-11.036-9.614-16.538-14.442
		c-1.901-1.668-3.713-3.49-6.388-3.891C255.029,229.548,255.029,228.88,255.029,228.214z"/>
	<path fill-rule="evenodd" clip-rule="evenodd" fill="#3B2014" stroke="#000000" stroke-width="6" stroke-miterlimit="10" d="
		M255.029,230.214c2.675,0.4,4.486,2.223,6.388,3.891c5.502,4.828,10.865,9.825,16.538,14.442
		c4.652,3.787,9.048,7.884,13.717,11.603c5.411,4.309,10.289,9.254,15.983,13.205c0.541,0.375,1.002,0.863,1.486,1.285
		c-2.074,5.99-3.942,11.88-6.148,17.64c-3.036,7.924-5.437,16.062-8.383,24.021c-2.352,6.354-4.518,12.807-6.609,19.27
		c-1.126,3.479-2.543,6.863-3.808,10.298c-0.023,0.065,0.199,0.274,0.342,0.333c0.142,0.06,0.327,0.014,0.494,0.014
		c-0.129,0.614,0.314,1.337-0.375,1.877c-0.702-0.18-1.06-0.996-1.995-0.915c-1.899,0.165-3.901-0.358-5.567,1.038
		c-5.084-0.704-9.973,1.533-15.049,1.019c-0.271-0.028-0.569,0.207-0.855,0.321c-0.299,0.511,0.053,1.305-0.07,1.354
		c-3.017-1.092-5.529-0.607-7.916-0.615c-0.172,0.83-0.266,1.284-0.369,1.783c-2.463-1.515-5.021-0.576-7.279-0.885
		c-0.806,0.806-1.394,1.394-1.918,1.919c-2.399-1.745-4.98-0.537-7.361-0.929c-0.219,0.841-0.336,1.291-0.453,1.739
		c-2.546-1.262-5.154-0.603-7.629-0.596c-0.167,0.817-0.261,1.271-0.363,1.771c-2.475-1.535-5.033-0.602-7.283-0.897
		c-0.816,0.816-1.403,1.404-1.933,1.934c-2.392-1.778-4.973-0.569-7.356-0.933c-0.219,0.841-0.337,1.291-0.454,1.741
		c-2.545-1.288-5.152-0.641-7.62-0.595c-0.167,0.815-0.259,1.27-0.362,1.774c-2.483-1.556-5.042-0.631-7.278-0.919
		c-0.83,0.83-1.418,1.418-1.965,1.966c-2.032-1.686-4.276-0.706-6.355-0.931c-0.193,0.826-0.299,1.278-0.405,1.73
		c-1.975-0.433-3.965-1.979-5.789,0.248c-3.747,1.431-7.661,0.952-11.527,0.996c-1.824,0.021-3.649,0.004-5.473,0.004
		c0.134-0.614-0.284-1.294,0.344-1.86c1.805-1.631,3.197-3.721,4.479-5.658c5.821-8.8,11.916-17.392,17.994-26.011
		c4.337-6.149,8.726-12.301,12.765-18.659c2.097-3.302,5.031-6.056,6.417-9.812c2.133-2.566,4.39-5.041,6-8c0-0.666,0-1.334,0-2
		c0.583,0,1.167,0,2,0c0-0.833,0-1.416,0-2c1.251-0.23,1.997-1.256,2.559-2.138c2.953-4.632,6.242-9.034,9.3-13.573
		c4.014-5.955,8.262-11.754,12.199-17.766c4.465-6.818,9.252-13.431,14.037-20.032C252.997,232.503,253.014,230.484,255.029,230.214
		z"/>
	<path fill-rule="evenodd" clip-rule="evenodd" fill="#864A20" stroke="#000000" stroke-width="6" stroke-miterlimit="10" d="
		M235.029,104.214c0,15.333,0,30.667,0,46c-13.667,0-27.333,0-41,0c-7.158,0-14.318,0.116-21.472-0.033
		c-7.024-0.146-14.083,0.717-21.077-0.894c-2.055-0.473-4.311-0.073-6.475-0.073c-1.997,0-3.995,0-5.992,0c-2.164,0-4.328,0-6.492,0
		c-2.164,0-4.328,0-6.492,0s-4.328,0-6.492,0c-1.998,0-4.008,0.143-5.989-0.04c-2.029-0.187-4.288,0.953-6.063-0.917
		c-1.912,2.348-3.676-0.476-5.703-0.206c-4.089,0.544-8.301,0.164-12.462,0.161c-0.679-0.001-1.368-0.01-1.291-0.999
		c6.701-5.093,13.354-10.25,20.029-15.374c5.527-4.242,10.959-8.619,16.598-12.716c4.768-3.464,9.483-6.979,13.909-10.878
		c0.28-0.247,0.966-0.032,1.464-0.032c1.824,0,3.649,0.017,5.473-0.003c3.866-0.044,7.78,0.434,11.527-0.997
		c7.011-0.208,13.999,0.117,21.036-0.855c7.91-1.093,15.972,0.404,24.016-0.972c5.326-0.912,10.948-0.413,16.413-0.106
		C224.079,105.594,229.466,103.671,235.029,104.214z"/>
	<path fill-rule="evenodd" clip-rule="evenodd" fill="#864A20" stroke="#000000" stroke-width="6" stroke-miterlimit="10" d="
		M54.029,251.214c-0.114,0.631,0.271,0.959,0.791,0.986c10.476,0.552,18.07,6.127,23.048,14.742
		c3.505,6.066,4.574,13.033,1.892,20.092c-1.602,4.213-3.838,7.884-7.064,11.06c-7.262,7.149-15.119,13.661-22.206,21.009
		c-2.407,2.496-5.202,4.71-7.822,7.044c-2.852,2.54-5.402,5.415-8.165,8.061c-1.49,1.427-3.391,2.481-4.665,4.06
		c-1.368,1.697-3.089,2.778-4.809,3.947c-1.892-0.657-0.408-3.059-2-3.871c-0.706-4.949-2.565-9.574-3.982-14.326
		c-1.416-4.748-2.514-9.597-4.058-14.301c-2.361-7.193-4.374-14.497-6.503-21.748c-1.918-6.531-4.356-12.943-5.538-19.713
		c-0.447-2.56-1.397-5.115-2.229-7.561c-0.625-1.838-0.288-3.444-0.72-4.91c0.69-0.887,1.415-0.441,2.029-0.57
		c1.432,2.045,3.542,0.51,5.269,1c2.13-1.898,4.698-0.825,7.058-0.949c2.562-0.135,4.85-1.451,7.561-1.129
		c4.352,0.516,8.597-1.643,13.022-0.926c0.162,0.027,0.409,0.076,0.486-0.007c1.772-1.912,4.056-0.905,6.071-0.912
		c2.129-0.007,3.826-1.523,6.072-1.151C49.668,251.488,51.872,251.214,54.029,251.214z"/>
	<path fill-rule="evenodd" clip-rule="evenodd" fill="#010101" stroke="#000000" stroke-width="6" stroke-miterlimit="10" d="
		M381.029,152.214c-0.014,1.375-1.066,0.983-1.787,0.985c-6.486,0.025-13.076,0.742-19.433-0.165
		c-8.384-1.197-16.711-0.588-25.057-0.779c-8.312-0.19-16.63-0.04-24.945-0.045c-0.479,0-0.958-0.056-1.914-0.116
		c1.256-3.741,2.433-7.331,3.665-10.902c3.463-10.039,7.586-19.848,10.471-30.088c3.012-4.767,3.719-10.411,5.88-15.526
		c2.147-5.086,3.228-10.704,5.356-15.739c2.104-4.978,3.443-10.196,5.623-15.138c2.166-4.91,3.459-10.206,5.143-15.329
		c0.674-2.05,2.508-3.723,1.998-6.157c0.333,0,0.667,0,1,0c1.959,3.379,5.211,14.602,6.042,17.435
		c1.168,3.981,2.839,7.82,3.912,11.822c1.997,7.455,4.563,14.723,6.892,22.069c2.977,9.392,5.264,19.008,9.102,28.121
		c0.945,7.44,4.641,14.093,6.116,21.399C379.643,146.786,381.407,149.244,381.029,152.214z"/>
	<path fill-rule="evenodd" clip-rule="evenodd" fill="#BA6F2F" stroke="#000000" stroke-width="6" stroke-miterlimit="10" d="
		M88.029,147.214c-0.078,0.989,0.612,0.998,1.291,0.999c4.161,0.003,8.374,0.383,12.462-0.161c2.027-0.27,3.792,2.554,5.703,0.206
		c1.775,1.869,4.034,0.73,6.063,0.917c1.98,0.182,3.991,0.04,5.989,0.04c2.164,0,4.328,0,6.492,0s4.328,0,6.492,0
		c2.164,0,4.328,0,6.492,0c1.998,0,3.995,0,5.992,0c2.164,0,4.42-0.4,6.475,0.073c6.994,1.611,14.052,0.748,21.077,0.894
		c7.154,0.149,14.314,0.033,21.472,0.033c-2.97,2.741-6.906,3.759-10.319,5.72c-4.534,2.604-9.208,5.051-14.05,7.003
		c-3.161,1.275-6.188,2.737-9.211,4.265c-3.159,1.596-6.361,3.106-9.552,4.64c-3.05,1.467-6.107,2.919-9.165,4.371
		c-8.765,4.16-17.323,8.813-26.174,12.7c-9.458,4.154-18.422,9.262-27.902,13.322c-8.216,3.52-16.104,7.725-24.06,11.791
		c-2.286,1.168-4.776,2.406-7.567,2.188c0.132-0.612-0.023-1.191,0.301-1.867c4.501-9.403,9.147-18.749,13.228-28.334
		c1.501-3.527,3.275-6.926,4.694-10.487c1.363-3.42,3.445-6.615,4.604-10.014c1.746-5.119,5.129-9.468,6.358-14.81
		C85.482,149.538,86.013,147.484,88.029,147.214z"/>
	<path fill-rule="evenodd" clip-rule="evenodd" fill="#BA6F2F" stroke="#000000" stroke-width="6" stroke-miterlimit="10" d="
		M157.029,107.214c-3.747,1.431-7.661,0.952-11.527,0.997c-1.824,0.021-3.649,0.003-5.473,0.003c0-0.833-0.357-2.012,0.059-2.44
		c2.575-2.652,4.001-6.021,5.92-9.07c4.064-6.459,8.002-12.999,12.028-19.483c2.552-4.11,5.202-8.161,7.749-12.275
		c3.114-5.029,6.136-10.114,9.253-15.141c2.88-4.642,5.831-9.24,8.763-13.849c0.174-0.274,0.604-0.438,0.678-0.717
		c1.613-6.061,7.218-7.442,11.854-9.609c2.482-1.16,5.059-2.234,7.571-3.406c6.557-3.056,13.085-6.181,19.721-9.057
		c6.349-2.751,12.32-6.376,19.092-8.172c4.078-1.082,8.033-2.482,12.307-2.97c1.625-0.186,3.355-0.703,5.1-0.828
		c1.887-0.135,3.713,0.217,5.66-0.833c1.418-0.766,3.586-0.071,5.412-0.167c3.253-0.171,6.247,1.333,9.581,1.146
		c2.903-0.163,5.827,1.246,8.703,1.654c7.531,1.067,14.089,4.604,21.094,7.013c6.847,2.355,13.497,5.274,20.462,7.336
		c2.011,0.595,4.346,1.2,5.994,2.868c-0.15,0.758,0.496,1.915-1,2c-1.499,0-3.129,0.372-4.463-0.098
		c-1.549-0.545-2.735,1.787-4.154,0.215c-1.109,1.548-2.735,0.752-4.134,0.854c-1.657,0.121-3.33,0.02-4.995,0.036
		c-0.31,0.003-0.776,0-0.902,0.184c-0.895,1.298-2.262-0.424-3.465,0.687c-0.719,0.665-2.567,0.245-3.881,0.089
		c-1.398-0.166-2.694,0.804-3.896,0.529c-1.463-0.335-2.407,0.895-3.88,0.599c-1.922-0.386-4.049-0.412-5.954,0.01
		c-1.416,0.313-2.886,0.45-4.304,0.785c-1.894,0.447-4.051-0.226-5.944,0.221c-1.418,0.335-2.888,0.471-4.304,0.785
		c-1.905,0.422-3.975,0.094-5.973,0.112c-0.477,0.005-1.189-0.068-1.387,0.197c-0.938,1.265-2.277-0.442-3.48,0.673
		c-0.717,0.664-2.567,0.245-3.881,0.088c-1.399-0.167-2.691,0.804-3.896,0.529c-1.46-0.333-2.408,0.892-3.88,0.598
		c-1.922-0.383-4.049-0.412-5.954,0.011c-1.416,0.314-2.886,0.45-4.304,0.785c-1.894,0.447-4.254-0.479-5.879,0.301
		c-1.25,0.6-2.294-0.253-3.501,0.505c-1.084,0.681-2.868,0.249-4.343,0.304c-1.642,0.061-3.553-0.38-4.846,0.321
		c-1.213,0.658-2.316-0.561-3.52,0.558c-0.715,0.665-2.605,0.352-3.87,0.058c-1.294-0.301-2.379,1.595-3.634,0.185
		c-0.941,1.411-2.385,0.797-3.635,0.861c-1.495,0.077-2.997,0.018-4.496,0.018c-0.5,0-1.255-0.21-1.457,0.035
		c-1.066,1.295-2.549,0.15-3.872,0.817c-1.328,0.67-3.259,0.197-4.922,0.132c-1.361-0.053-2.765,0.318-3.926,0.653
		c-1.623,0.469-3.236-0.045-4.898,0.599c-0.061,0.38-0.023,0.894-0.223,1.288c-11.285,22.312-22.616,44.601-33.808,66.959
		C157.669,104.705,156.556,105.782,157.029,107.214z"/>
	<path fill-rule="evenodd" clip-rule="evenodd" fill="#512A16" stroke="#000000" stroke-width="6" stroke-miterlimit="10" d="
		M206.029,299.214c-1.386,3.756-4.32,6.51-6.417,9.812c-4.039,6.358-8.428,12.51-12.765,18.659
		c-6.078,8.619-12.173,17.211-17.994,26.011c-1.282,1.938-2.674,4.027-4.479,5.658c-0.628,0.566-0.209,1.246-0.344,1.86
		c-5.581,0.695-10.988-1.476-16.555-1c-4.888-1.954-10.33-1.06-15.243-2.961c-0.723-0.28-1.649-0.013-2.48-0.045
		c-1.903-0.072-3.742,0.143-5.629-0.896c-1.588-0.873-3.923,0.796-5.565-1.026c-0.154-0.172-0.635-0.106-0.953-0.064
		c-4.757,0.624-9.34-1.629-14.049-0.931c-1.83,0.271-2.863-1.301-4.595-1.159c-1.352,0.11-2.958,0.746-4.207-0.635
		c-0.251-0.277-0.92-0.335-1.357-0.262c-3.95,0.66-7.647-1.544-11.565-1.004c-1.535,0.212-2.436-1.378-4.095-1.107
		c-1.316,0.215-2.958,0.687-4.145-0.776c-0.209-0.258-0.949-0.201-1.413-0.118c-3.952,0.711-7.678-0.961-11.551-1.236
		c-2.647-0.188-5.504-0.224-8.046-0.924c-2.735-0.753-5.562-0.226-8.063-1.006c-2.729-0.852-5.393-0.648-8.075-0.9
		c-0.273-1.352-2.396-0.322-2.415-1.949c-0.114-0.631,0.288-1.02,0.787-0.977c7.391,0.622,14.652-1.762,22.026-0.981
		c2.826,0.299,5.253-1.384,8.075-1.099c2.633,0.266,5.559,0.738,7.915-0.108c3.266-1.173,6.427-0.74,9.621-0.79
		c6.032-0.094,11.968-1.741,18.038-1.045c4.401-1.896,9.031-0.799,13.553-0.939c2.589-0.08,4.875-1.482,7.573-1.134
		c2.616,0.338,5.5,0.683,7.925-0.073c3.385-1.057,6.726-0.604,9.485-0.854c7.275-3.96,14.104-7.585,20.844-11.37
		c7.137-4.008,14.287-7.975,21.537-11.785c5.595-2.941,10.962-6.418,16.648-9.236c1.561-0.772,2.739-2.006,4.324-2.764
		C203.648,299.453,204.759,299.267,206.029,299.214z"/>
	<path fill-rule="evenodd" clip-rule="evenodd" fill="#BA6F2F" stroke="#000000" stroke-width="6" stroke-miterlimit="10" d="
		M54.029,251.214c-2.158,0-4.361,0.273-6.461-0.074c-2.246-0.372-3.942,1.145-6.072,1.151c-2.016,0.007-4.299-1-6.071,0.912
		c-0.077,0.083-0.324,0.034-0.486,0.007c-4.425-0.717-8.671,1.441-13.022,0.926c-2.71-0.322-4.999,0.994-7.561,1.129
		c-2.36,0.124-4.928-0.949-7.058,0.949c-1.727-0.49-3.837,1.045-5.269-1c0.354-1.437,1.801-1.553,2.695-2.313
		c4.823-4.1,10.453-7.055,15.32-11.101c2.985-2.481,6.448-4.38,9.661-6.595c4.256-2.934,8.394-6.049,12.736-8.846
		c4.593-2.959,8.784-6.509,13.587-9.146c1.287,1.844,3.516,2.443,5.266,3.537c3.591,2.244,5.422,5.744,6.511,9.201
		c1.017,3.226,0.917,7.283-0.865,10.457c-2.589,4.609-5.998,8.627-11.625,9.788C54.664,250.333,53.952,250.225,54.029,251.214z"/>
	<path fill-rule="evenodd" clip-rule="evenodd" fill="#864A20" stroke="#000000" stroke-width="6" stroke-miterlimit="10" d="
		M336.029,22.214c1.496-0.085,0.85-1.242,1-2c1.419-0.502,2.167,1.307,3.552,0.967c2.191,6.385,3.511,13.008,6.161,19.192
		c0.424,0.99,0.117,1.906,0.287,2.841c-0.333,0-0.667,0-1,0c-2.237,0.028-4.392,0.052-6.6,0.938
		c-7.028,2.819-14.45,4.492-21.696,6.616c-6.527,1.914-13.026,4.052-19.698,5.583c-3.572,0.82-7.109,2.085-10.694,3.039
		c-3.444,0.917-6.669,2.634-10.312,2.825c0-0.499,0-0.998,0.001-1.495c3.064-1.834,6.23-3.52,9.169-5.538
		c5.029-3.456,10.242-6.644,15.417-9.837c5.539-3.42,10.999-6.999,16.695-10.192c5.702-3.197,11.119-6.901,16.662-10.381
		C335.936,24.167,336.188,23.277,336.029,22.214z"/>
	<path fill-rule="evenodd" clip-rule="evenodd" fill="#BA6F2F" stroke="#000000" stroke-width="6" stroke-miterlimit="10" d="
		M255.029,230.214c-2.016,0.27-2.032,2.289-2.904,3.491c-4.785,6.602-9.572,13.214-14.037,20.032
		c-3.938,6.012-8.185,11.811-12.199,17.766c-3.059,4.539-6.347,8.941-9.3,13.573c-0.562,0.882-1.308,1.907-2.559,2.138
		c-0.521-1.719,0.478-3.234,1.142-4.503c2.43-4.642,4.41-9.541,7.047-14.025c4.627-7.868,8.429-16.146,12.787-24.142
		c3.761-6.898,7.31-13.914,10.954-20.881c-1.235-0.605,0.008-1.559-0.184-2.035c-0.289-0.712-0.968-1.324-0.727-2.178
		c0.398-1.407-1.428-2.604-0.321-4.038c-1.427-1.388-0.481-3.13-0.679-4.699c-0.196-1.563-1.406-2.849-1.049-4.575
		c0.273-1.322-0.277-2.707-0.612-3.902c-0.465-1.655-0.014-3.266-0.401-4.81c-0.342-1.357-1.524-2.671-0.891-4.054
		c0.624-1.361-2.041-2.451-0.088-3.68c-1.417-0.897-0.406-2.803-1.084-3.479c-1.151-1.146,0.238-2.34-0.707-3.463
		c-0.838-0.996,0.499-2.965-1.133-3.983c1.769-1.239-0.355-2.356-0.164-3.652c0.193-1.309,0.461-2.751-0.527-4.238
		c-0.699-1.051-0.285-2.844-0.362-4.307c-0.051-0.953-0.208-1.782-0.663-2.727c-0.457-0.946-1.428-2.793,0.662-3.631
		c6,22.666,12,45.334,18,68C255.029,228.88,255.029,229.548,255.029,230.214z"/>
	<path fill-rule="evenodd" clip-rule="evenodd" fill="#BA6F2F" stroke="#000000" stroke-width="6" stroke-miterlimit="10" d="
		M214.029,287.214c0,0.584,0,1.167,0,2c-0.833,0-1.417,0-2,0c0-0.584,0-1.167,0-2C212.862,287.214,213.446,287.214,214.029,287.214z
		"/>
	<path fill-rule="evenodd" clip-rule="evenodd" fill="#BA6F2F" stroke="#000000" stroke-width="6" stroke-miterlimit="10" d="
		M212.029,289.214c0,0.666,0,1.334,0,2c-0.938,0.072-1.056-0.57-0.98-1.242C211.104,289.473,211.42,289.101,212.029,289.214z"/>
	<path fill-rule="evenodd" clip-rule="evenodd" fill="#9E5A27" stroke="#000000" stroke-width="6" stroke-miterlimit="10" d="
		M336.029,22.214c0.159,1.063-0.094,1.953-1.056,2.557c-5.543,3.48-10.96,7.184-16.662,10.381
		c-5.696,3.193-11.156,6.772-16.695,10.192c-5.175,3.194-10.388,6.382-15.417,9.837c-2.938,2.019-6.104,3.704-9.169,5.538
		c-0.001,0.498-0.001,0.996-0.001,1.495c-1.703-0.473-2.795,1.71-4.781,0.936c-2.545,8.107-5.078,16.183-7.613,24.259
		c-0.598,1.887-2.315,2.826-4.004,3.661c-8.391,4.15-16.832,8.202-25.24,12.317c-0.206,0.101-0.244,0.544-0.361,0.827
		c-5.563-0.543-10.95,1.379-16.535,1.067c-5.465-0.307-11.087-0.806-16.413,0.106c-8.044,1.376-16.106-0.122-24.016,0.972
		c-7.037,0.972-14.025,0.647-21.036,0.855c-0.473-1.432,0.64-2.51,1.144-3.517c11.192-22.358,22.522-44.647,33.808-66.959
		c0.199-0.394,0.162-0.908,0.223-1.288c1.662-0.645,3.275-0.13,4.898-0.599c1.161-0.335,2.564-0.706,3.926-0.653
		c1.663,0.065,3.595,0.538,4.922-0.132c1.323-0.667,2.805,0.478,3.872-0.817c0.202-0.245,0.957-0.035,1.457-0.035
		c1.499,0,3.001,0.059,4.496-0.018c1.25-0.064,2.694,0.55,3.635-0.861c1.254,1.411,2.339-0.485,3.634-0.185
		c1.264,0.294,3.155,0.607,3.87-0.058c1.204-1.119,2.306,0.1,3.52-0.558c1.293-0.701,3.204-0.26,4.846-0.321
		c1.475-0.055,3.259,0.376,4.343-0.304c1.207-0.758,2.251,0.095,3.501-0.505c1.625-0.779,3.985,0.146,5.879-0.301
		c1.418-0.334,2.888-0.471,4.304-0.785c1.905-0.423,4.032-0.395,5.954-0.011c1.472,0.294,2.42-0.931,3.88-0.598
		c1.204,0.275,2.496-0.697,3.896-0.529c1.313,0.157,3.164,0.576,3.881-0.088c1.203-1.115,2.543,0.592,3.48-0.673
		c0.197-0.265,0.91-0.192,1.387-0.197c1.998-0.019,4.067,0.31,5.973-0.112c1.416-0.314,2.886-0.45,4.304-0.785
		c1.894-0.447,4.051,0.227,5.944-0.221c1.418-0.335,2.888-0.472,4.304-0.785c1.905-0.422,4.032-0.396,5.954-0.01
		c1.473,0.296,2.417-0.934,3.88-0.599c1.201,0.275,2.497-0.695,3.896-0.529c1.313,0.156,3.162,0.576,3.881-0.089
		c1.203-1.11,2.57,0.612,3.465-0.687c0.126-0.184,0.593-0.181,0.902-0.184c1.665-0.017,3.338,0.085,4.995-0.036
		c1.398-0.103,3.024,0.694,4.134-0.854c1.419,1.572,2.605-0.76,4.154-0.215C332.9,22.586,334.53,22.214,336.029,22.214z"/>
</g>
</svg>
