<?xml version="1.0" encoding="utf-8"?>
<!-- Generator: Adobe Illustrator 16.0.0, SVG Export Plug-In . SVG Version: 6.00 Build 0)  -->
<!DOCTYPE svg PUBLIC "-//W3C//DTD SVG 1.1//EN" "http://www.w3.org/Graphics/SVG/1.1/DTD/svg11.dtd">
<svg version="1.1" id="Layer_1" xmlns="http://www.w3.org/2000/svg" xmlns:xlink="http://www.w3.org/1999/xlink" x="0px" y="0px"
	 width="50px" height="35.711px" viewBox="-0.003 17.144 50 35.711" enable-background="new -0.003 17.144 50 35.711"
	 xml:space="preserve">
<g id="Layer_1_1_" display="none">
	
		<image display="inline" overflow="visible" enable-background="new    " width="720" height="720" xlink:href="A557A3CD.png"  transform="matrix(1 0 0 1 -78 34.999)">
	</image>
</g>
<g id="Layer_2">
	<rect x="19.46" y="20.285" fill="#58595B" width="1.763" height="30.207"/>
	<rect x="4.78" y="42.184" fill="#58595B" width="29.433" height="1.819"/>
	<rect x="5.019" y="25.647" fill="#58595B" width="29.194" height="1.82"/>
	<rect x="32.04" y="30.77" fill="#58595B" width="13.912" height="1.82"/>
	<path d="M28.969,26.039c-0.786-0.817-0.933-2.622-0.933-2.622s0.073-1.735,0.933-2.614c0.386-0.4,2.559-0.537,4.865-0.516
		c2.479-0.021,4.906,0.123,5.286,0.516c0.793,0.812,0.938,2.615,0.938,2.615s-0.079,1.736-0.938,2.623
		c-0.387,0.4-2.552,0.528-4.858,0.516C31.781,26.574,29.354,26.432,28.969,26.039z"/>
	<path d="M15.268,22.903c-0.794-0.817-0.938-2.618-0.938-2.618s0.089-1.738,0.938-2.623c0.385-0.398,2.56-0.529,4.87-0.516
		c2.479-0.017,4.902,0.122,5.286,0.518c0.79,0.819,0.934,2.621,0.934,2.621s-0.079,1.736-0.934,2.618
		c-0.39,0.397-2.551,0.533-4.861,0.513C18.087,23.44,15.647,23.293,15.268,22.903z"/>
	<path d="M0.936,26.039c-0.794-0.817-0.939-2.622-0.939-2.622s0.073-1.735,0.939-2.615c0.383-0.399,2.552-0.536,4.855-0.515
		c2.481-0.021,4.917,0.121,5.293,0.516c0.795,0.811,0.94,2.614,0.94,2.614s-0.088,1.735-0.94,2.622
		c-0.385,0.401-2.56,0.528-4.862,0.515C3.739,26.574,1.313,26.432,0.936,26.039z"/>
	<path d="M15.268,52.343c-0.794-0.814-0.938-2.621-0.938-2.621s0.089-1.738,0.938-2.623c0.385-0.401,2.56-0.529,4.87-0.507
		c2.479-0.028,4.902,0.114,5.286,0.507c0.79,0.816,0.934,2.623,0.934,2.623s-0.079,1.738-0.934,2.623
		c-0.39,0.402-2.551,0.529-4.861,0.508C18.087,52.878,15.647,52.738,15.268,52.343z"/>
	<path d="M0.936,49.203c-0.794-0.811-0.939-2.613-0.939-2.613s0.073-1.746,0.939-2.63c0.383-0.391,2.552-0.529,4.855-0.508
		c2.481-0.028,4.917,0.117,5.293,0.508c0.795,0.83,0.94,2.632,0.94,2.632s-0.088,1.728-0.94,2.612
		c-0.385,0.404-2.56,0.529-4.862,0.518C3.739,49.739,1.313,49.599,0.936,49.203z"/>
	<path d="M28.969,49.203c-0.786-0.811-0.933-2.613-0.933-2.613s0.073-1.746,0.933-2.63c0.386-0.391,2.559-0.529,4.865-0.508
		c2.479-0.028,4.906,0.117,5.286,0.508c0.793,0.83,0.938,2.632,0.938,2.632s-0.079,1.728-0.938,2.612
		c-0.387,0.404-2.552,0.529-4.858,0.518C31.781,49.739,29.354,49.599,28.969,49.203z"/>
	<rect x="3.499" y="28.71" fill="#58595B" width="30.174" height="12.586"/>
	<polygon fill="#58595B" points="49.997,33.161 45.952,33.161 45.952,30.77 49.997,30.77 49.997,28.575 44.367,28.575 
		44.367,35.356 49.997,35.356 	"/>
	<g>
		<path fill="#FCFBFB" d="M19.461,40.724c-0.788,0-1.592-0.035-2.395,0.014c-0.542,0.025-0.867-0.221-1.107-0.684
			c-0.648-1.218-1.29-2.435-1.955-3.639c-0.137-0.257-0.263-0.512-0.42-0.756c-0.312-0.452-0.27-0.894,0.008-1.355
			c0.37-0.648,0.729-1.311,1.077-1.967c0.49-0.903,0.977-1.814,1.477-2.709c0.135-0.229,0.358-0.353,0.623-0.353
			c1.788,0,3.565-0.002,5.36,0c0.368,0,0.582,0.263,0.743,0.562c0.732,1.345,1.443,2.696,2.184,4.032
			c0.129,0.243,0.259,0.495,0.4,0.735c0.15,0.256,0.138,0.544-0.008,0.813c-0.469,0.871-0.946,1.735-1.413,2.597
			c-0.411,0.752-0.821,1.502-1.223,2.236c-0.185,0.336-0.453,0.488-0.832,0.48C21.143,40.71,20.301,40.724,19.461,40.724z
			 M20.284,37.661c0.48-0.326,0.978-0.477,1.368-0.793c0.048-0.121,0.048-0.217-0.015-0.369c-0.62-0.164-1.285-0.021-1.938-0.078
			c-0.015,0.152-0.046,0.264,0.027,0.409c0.412,0,0.813,0,1.23,0c-0.389,0.294-0.836,0.461-1.23,0.733
			c-0.097,0.146-0.118,0.293,0.06,0.463c0.597,0.044,1.231,0.021,1.866,0.024c0.03-0.146,0.038-0.254-0.006-0.391
			C21.212,37.661,20.773,37.661,20.284,37.661z M19.699,32.693c-0.021,0.146-0.046,0.269,0.017,0.406c0.228,0,0.466,0,0.705,0
			c0.011,0.085,0.033,0.16-0.036,0.239c-0.218,0.131-0.447,0.259-0.686,0.401c-0.023,0.143-0.026,0.288,0,0.467
			c0.266-0.15,0.511-0.292,0.759-0.428c0.152,0.319,0.413,0.403,0.718,0.359c0.245-0.029,0.411-0.168,0.469-0.401
			c0.07-0.346,0.057-0.698-0.021-1.044C20.978,32.693,20.356,32.693,19.699,32.693z M20.658,34.469
			c-0.128,0.006-0.251,0.006-0.373,0.021c-0.423,0.046-0.629,0.276-0.635,0.692c0,0.143,0,0.282,0.049,0.42
			c0.051,0.202,0.195,0.343,0.392,0.397c0.32,0.092,0.634,0.09,0.953,0.049c0.581-0.096,0.857-0.734,0.557-1.245
			c-0.095-0.135-0.193-0.238-0.375-0.281C21.04,34.475,20.856,34.484,20.658,34.469z M17.072,31.995
			c0.286,0.057,0.576-0.021,0.868,0.042c0,0.339,0,0.666,0,1.019c-0.26,0-0.495,0-0.731,0c-0.126-0.002-0.177,0.042-0.112,0.174
			c0.601,0,1.201,0,1.806,0c0.032-0.059,0.022-0.107,0.007-0.166c-0.262-0.043-0.528,0.025-0.782-0.033c0-0.35,0-0.679,0-1.022
			c0.271,0,0.531,0,0.791,0c0-0.073,0.024-0.119-0.04-0.179c-0.546,0-1.11,0.002-1.669,0C17.111,31.831,17.049,31.851,17.072,31.995
			z M19.699,32.229c0.667,0,1.318,0,1.953,0c0-0.138,0-0.252,0-0.383c-0.653,0-1.297,0-1.942,0
			C19.655,31.971,19.684,32.088,19.699,32.229z M17.599,33.963c0,0.28,0,0.561,0,0.829C17.102,35,17.102,35,17.1,35.183
			c0.64-0.246,1.28-0.46,1.879-0.801c-0.602-0.337-1.254-0.547-1.908-0.762C17.16,33.879,17.422,33.85,17.599,33.963z
			 M17.102,38.116c0.303-0.309,0.619-0.602,0.916-0.892c0.313,0.292,0.605,0.583,0.896,0.856c-0.101-0.453-0.534-0.647-0.791-1.045
			c0.174,0,0.306,0.018,0.452-0.004c0.111-0.006,0.264,0.083,0.358-0.086c-0.343-0.115-1.734-0.069-1.876,0.058
			c0.28,0.077,0.567,0,0.839,0.058c-0.266,0.307-0.533,0.6-0.786,0.893C17.062,37.973,17.062,38.036,17.102,38.116z M18.828,36.538
			c0.139-0.035,0.092-0.121,0.108-0.184c0.128-0.6-0.088-0.91-0.692-0.989c-0.188-0.023-0.368-0.007-0.554,0.006
			c-0.286,0.012-0.481,0.12-0.617,0.382c-0.037,0.249-0.081,0.528,0.063,0.835c0.12-0.164,0.044-0.303,0.063-0.441
			c0.012-0.199,0.009-0.439,0.253-0.537c0.439-0.159,0.868-0.163,1.233,0.088C18.877,35.978,18.768,36.272,18.828,36.538z"/>
		<path fill="#58595B" d="M20.284,37.661c0.489,0,0.929,0,1.363,0c0.044,0.139,0.037,0.244,0.005,0.391
			c-0.635-0.002-1.27,0.021-1.863-0.021c-0.179-0.174-0.159-0.32-0.061-0.467c0.395-0.271,0.842-0.439,1.23-0.732
			c-0.417,0-0.82,0-1.23,0c-0.075-0.146-0.044-0.255-0.029-0.408c0.655,0.055,1.318-0.088,1.94,0.076
			c0.062,0.154,0.062,0.252,0.013,0.371C21.261,37.185,20.764,37.335,20.284,37.661z"/>
		<path fill="#58595B" d="M19.699,32.693c0.657,0,1.279,0,1.925,0c0.077,0.347,0.093,0.697,0.021,1.044
			c-0.054,0.232-0.224,0.372-0.469,0.401c-0.305,0.044-0.565-0.041-0.718-0.359c-0.25,0.135-0.493,0.277-0.759,0.428
			c-0.026-0.18-0.024-0.326,0-0.467c0.238-0.14,0.466-0.268,0.686-0.4c0.069-0.081,0.047-0.155,0.036-0.239
			c-0.241,0-0.478,0-0.705,0C19.653,32.961,19.678,32.839,19.699,32.693z M20.838,33.669c0.472,0.103,0.618-0.063,0.479-0.563
			c-0.168,0-0.349,0-0.533,0C20.742,33.299,20.735,33.479,20.838,33.669z"/>
		<path fill="#58595B" d="M20.658,34.469c0.198,0.015,0.382,0.006,0.565,0.055c0.183,0.042,0.282,0.144,0.375,0.28
			c0.302,0.514,0.028,1.15-0.556,1.245c-0.318,0.044-0.634,0.044-0.953-0.048c-0.196-0.053-0.342-0.195-0.391-0.398
			c-0.049-0.138-0.049-0.278-0.049-0.419c0.005-0.418,0.212-0.648,0.635-0.696C20.407,34.475,20.53,34.475,20.658,34.469z
			 M21.102,35.644c0.311-0.289,0.324-0.553,0.059-0.705c-0.272-0.146-0.876-0.077-1.121,0.122c-0.053,0.122-0.048,0.247-0.013,0.404
			C20.333,35.79,20.733,35.589,21.102,35.644z"/>
		<path fill="#58595B" d="M17.072,31.995c-0.022-0.143,0.039-0.164,0.137-0.164c0.561,0.002,1.123,0.002,1.669,0.002
			c0.064,0.059,0.04,0.104,0.04,0.176c-0.258,0-0.521,0-0.789,0c0,0.343,0,0.673,0,1.023c0.252,0.059,0.519-0.012,0.782,0.034
			c0.015,0.06,0.025,0.107-0.008,0.164c-0.604,0-1.206,0-1.803,0c-0.066-0.133-0.016-0.173,0.108-0.173c0.238,0,0.474,0,0.732,0
			c0-0.353,0-0.681,0-1.021C17.648,31.973,17.358,32.051,17.072,31.995z"/>
		<path fill="#58595B" d="M19.699,32.229c-0.015-0.14-0.044-0.258,0.011-0.383c0.644,0,1.291,0,1.942,0c0,0.13,0,0.245,0,0.383
			C21.017,32.229,20.366,32.229,19.699,32.229z"/>
		<path fill="#58595B" d="M17.599,33.963c-0.177-0.114-0.439-0.084-0.528-0.343c0.654,0.217,1.305,0.427,1.908,0.763
			c-0.599,0.342-1.239,0.555-1.879,0.799c0.002-0.182,0.002-0.182,0.499-0.391C17.599,34.524,17.599,34.243,17.599,33.963z
			 M17.754,34.766c0.313-0.179,0.632-0.219,0.968-0.389c-0.342-0.125-0.649-0.244-0.968-0.358
			C17.754,34.262,17.754,34.493,17.754,34.766z"/>
		<path fill="#58595B" d="M17.102,38.116c-0.042-0.08-0.04-0.143,0.009-0.162c0.257-0.293,0.522-0.586,0.788-0.891
			c-0.273-0.057-0.559,0.02-0.839-0.057c0.142-0.13,1.533-0.176,1.876-0.059c-0.095,0.169-0.247,0.078-0.36,0.086
			c-0.144,0.021-0.276,0.006-0.45,0.006c0.255,0.396,0.69,0.59,0.789,1.043c-0.29-0.275-0.583-0.563-0.895-0.856
			C17.721,37.515,17.407,37.808,17.102,38.116z"/>
		<path fill="#58595B" d="M18.828,36.538c-0.06-0.266,0.05-0.561-0.139-0.84c-0.364-0.251-0.797-0.247-1.236-0.088
			c-0.244,0.098-0.236,0.338-0.251,0.537c-0.021,0.139,0.056,0.277-0.063,0.441c-0.145-0.304-0.101-0.584-0.063-0.835
			c0.134-0.262,0.33-0.373,0.615-0.382c0.186-0.014,0.368-0.03,0.557-0.006c0.604,0.078,0.817,0.388,0.689,0.989
			C18.919,36.417,18.966,36.503,18.828,36.538z"/>
		<path fill="#FCFBFB" d="M20.838,33.669c-0.104-0.19-0.098-0.367-0.055-0.563c0.185,0,0.365,0,0.533,0
			C21.457,33.607,21.31,33.77,20.838,33.669z"/>
		<path fill="#FCFBFB" d="M21.102,35.644c-0.369-0.051-0.769,0.146-1.075-0.179c-0.035-0.157-0.04-0.282,0.013-0.404
			c0.245-0.198,0.849-0.267,1.121-0.122C21.426,35.09,21.413,35.355,21.102,35.644z"/>
		<path fill="#FCFBFB" d="M17.754,34.766c0-0.273,0-0.504,0-0.747c0.318,0.114,0.626,0.233,0.968,0.358
			C18.386,34.547,18.068,34.587,17.754,34.766z"/>
	</g>
</g>
</svg>
